<svg width="151" height="316" viewBox="0 0 151 316" fill="none" xmlns="http://www.w3.org/2000/svg">
<path fill-rule="evenodd" clip-rule="evenodd" d="M165.715 16.6397C129.084 5.17619 91.4194 -13.944 52.8586 20.9794C14.2977 55.9028 -9.9452 86.4954 5.71018 126.079C21.3656 165.662 85.2693 141.007 103.837 176.385C122.404 211.762 81.6073 243.871 99.1959 275.357C116.784 306.843 130.309 327.023 186.833 307.003C243.356 286.983 238.145 236.044 281.129 206.214C324.112 176.385 370.618 131.729 306.796 52.0461C242.975 -27.6364 202.345 28.1032 165.715 16.6397Z" stroke="#9E96C6"/>
<path fill-rule="evenodd" clip-rule="evenodd" d="M169.999 36.9582C140.17 27.6502 109.499 12.1252 78.0979 40.4818C46.6969 68.8384 26.9554 93.6786 39.7039 125.819C52.4524 157.959 104.491 137.94 119.611 166.666C134.731 195.391 101.509 221.462 115.832 247.028C130.154 272.593 141.167 288.979 187.196 272.723C233.225 256.468 228.981 215.107 263.984 190.886C298.986 166.666 336.857 130.406 284.885 65.707C232.914 1.00751 199.828 46.2661 169.999 36.9582Z" stroke="#9E96C6"/>
<path fill-rule="evenodd" clip-rule="evenodd" d="M179.093 48.91C154.997 41.333 130.22 28.6951 104.854 51.7784C79.4874 74.8616 63.5398 95.0825 73.8383 121.246C84.1368 147.409 126.174 131.113 138.388 154.496C150.603 177.88 123.765 199.103 135.336 219.914C146.906 240.725 155.802 254.063 192.985 240.831C230.168 227.598 226.74 193.929 255.015 174.213C283.291 154.496 313.884 124.98 271.9 72.3125C229.917 19.6449 203.19 56.487 179.093 48.91Z" stroke="#9E96C6"/>
<path fill-rule="evenodd" clip-rule="evenodd" d="M188.066 64.7966C168.536 58.6893 148.455 48.5028 127.896 67.1087C107.337 85.7146 94.4117 102.013 102.758 123.102C111.105 144.19 145.176 131.055 155.075 149.903C164.975 168.751 143.224 185.857 152.601 202.632C161.978 219.406 169.189 230.157 199.325 219.492C229.461 208.826 226.683 181.687 249.6 165.795C272.517 149.903 297.311 126.112 263.284 83.6599C229.258 41.208 207.596 70.904 188.066 64.7966Z" stroke="#9E96C6"/>
<path fill-rule="evenodd" clip-rule="evenodd" d="M189.781 72.2276C173.847 67.2306 157.462 58.8962 140.687 74.1192C123.913 89.3422 113.367 102.677 120.177 119.932C126.987 137.186 154.786 126.439 162.864 141.86C170.941 157.281 153.193 171.277 160.845 185.002C168.496 198.726 174.379 207.523 198.968 198.796C223.556 190.069 221.289 167.865 239.988 154.863C258.686 141.86 278.917 122.395 251.154 87.6611C223.39 52.9277 205.716 77.2245 189.781 72.2276Z" stroke="#9E96C6"/>
<path fill-rule="evenodd" clip-rule="evenodd" d="M195.472 80.8204C182.646 76.738 169.458 69.9288 155.957 82.3659C142.456 94.803 133.967 105.698 139.449 119.794C144.93 133.891 167.305 125.111 173.806 137.71C180.307 150.309 166.023 161.743 172.181 172.956C178.34 184.169 183.075 191.356 202.866 184.226C222.657 177.096 220.832 158.956 235.882 148.333C250.932 137.71 267.215 121.806 244.869 93.4295C222.523 65.0526 208.297 84.9029 195.472 80.8204Z" stroke="#9E96C6"/>
</svg>
