<svg width="699" height="173" viewBox="0 0 699 173" fill="none" xmlns="http://www.w3.org/2000/svg">
<g id="Footer Background">
<path id="Path 3" fill-rule="evenodd" clip-rule="evenodd" d="M357.361 139.675C433.064 163.368 510.904 202.887 590.596 130.705C670.289 58.5227 720.39 -4.7087 688.036 -86.5221C655.682 -168.336 523.614 -117.377 485.242 -190.499C446.869 -263.621 531.183 -329.984 494.833 -395.062C458.484 -460.14 430.534 -501.849 313.718 -460.471C196.902 -419.092 207.673 -313.807 118.84 -252.153C30.0071 -190.499 -66.1041 -98.2003 65.7937 66.4938C197.691 231.188 281.659 115.981 357.361 139.675Z" stroke="#DADADA"/>
<path id="Path 3 Copy" fill-rule="evenodd" clip-rule="evenodd" d="M347.895 101.751C409.478 120.991 472.8 153.081 537.629 94.4677C602.457 35.8543 643.214 -15.4907 616.895 -81.9248C590.575 -148.359 483.14 -106.98 451.924 -166.356C420.708 -225.732 489.296 -279.621 459.726 -332.465C430.157 -385.31 407.42 -419.178 312.392 -385.578C217.364 -351.978 226.125 -266.484 153.861 -216.42C81.5969 -166.356 3.41175 -91.4076 110.709 42.327C218.006 176.062 286.312 82.5115 347.895 101.751Z" stroke="#DADADA"/>
<path id="Path 3 Copy 2" fill-rule="evenodd" clip-rule="evenodd" d="M330.188 76.5826C380.15 92.281 431.522 118.465 484.117 70.6397C536.711 22.8147 569.777 -19.0797 548.424 -73.2859C527.071 -127.492 439.91 -93.7291 414.586 -142.176C389.261 -190.624 444.905 -234.594 420.916 -277.712C396.926 -320.829 378.48 -348.464 301.385 -321.048C224.29 -293.633 231.398 -223.875 172.771 -183.026C114.144 -142.176 50.7132 -81.0233 137.762 28.0961C224.811 137.215 280.227 60.8841 330.188 76.5826Z" stroke="#DADADA"/>
<path id="Path 3 Copy 5" fill-rule="evenodd" clip-rule="evenodd" d="M311.684 45.8163C351.979 58.4115 393.412 79.4194 435.831 41.0481C478.25 2.67691 504.918 -30.9361 487.696 -74.427C470.475 -117.918 400.178 -90.8292 379.753 -129.7C359.328 -168.57 404.206 -203.848 384.858 -238.443C365.51 -273.038 350.633 -295.21 288.454 -273.213C226.275 -251.217 232.008 -195.248 184.724 -162.474C137.44 -129.7 86.2818 -80.635 156.488 6.91428C226.695 94.4635 271.389 33.221 311.684 45.8163Z" stroke="#DADADA"/>
<path id="Path 3 Copy 4" fill-rule="evenodd" clip-rule="evenodd" d="M306.917 25.9542C339.827 36.2494 373.666 53.4211 408.31 22.0567C442.953 -9.30757 464.734 -36.7825 450.668 -72.3316C436.603 -107.881 379.191 -85.7386 362.51 -117.511C345.828 -149.283 382.481 -178.12 366.679 -206.397C350.877 -234.674 338.727 -252.797 287.945 -234.818C237.163 -216.838 241.845 -171.09 203.227 -144.301C164.61 -117.511 122.829 -77.406 180.167 -5.84398C237.506 65.718 274.008 15.6589 306.917 25.9542Z" stroke="#DADADA"/>
<path id="Path 3 Copy 3" fill-rule="evenodd" clip-rule="evenodd" d="M297.775 11.594C324.493 19.9543 351.966 33.8987 380.093 8.42906C408.22 -17.0405 425.903 -39.3518 414.483 -68.2197C403.064 -97.0876 356.452 -79.1069 342.909 -104.908C329.365 -130.709 359.123 -154.125 346.294 -177.088C333.465 -200.051 323.6 -214.768 282.371 -200.168C241.142 -185.567 244.943 -148.417 213.591 -126.663C182.238 -104.908 148.316 -72.3403 194.868 -14.2279C241.421 43.8845 271.056 3.23364 297.775 11.594Z" stroke="#DADADA"/>
</g>
</svg>
